<svg width="208" height="208" viewBox="0 0 208 208" fill="none" xmlns="http://www.w3.org/2000/svg">
<g clip-path="url(#clip0_1_2)" filter="url(#filter0_d_1_2)">
<rect width="200" height="200" transform="translate(4)" fill="white"/>
<g filter="url(#filter1_d_1_2)">
<mask id="mask0_1_2" style="mask-type:alpha" maskUnits="userSpaceOnUse" x="4" y="0" width="200" height="200">
<rect x="4" width="200" height="200" fill="#D9D9D9"/>
</mask>
<g mask="url(#mask0_1_2)">
<path d="M95.25 137.917L142.333 90.8333L130.458 78.9583L95.25 114.167L77.5417 96.4583L65.6667 108.333L95.25 137.917ZM104 183.333C93.5833 183.333 83.8264 181.354 74.7292 177.396C65.6319 173.438 57.7153 168.09 50.9792 161.354C44.2431 154.618 38.8958 146.701 34.9375 137.604C30.9792 128.507 29 118.75 29 108.333C29 97.9167 30.9792 88.1597 34.9375 79.0625C38.8958 69.9653 44.2431 62.0486 50.9792 55.3125C57.7153 48.5764 65.6319 43.2292 74.7292 39.2708C83.8264 35.3125 93.5833 33.3333 104 33.3333C114.417 33.3333 124.174 35.3125 133.271 39.2708C142.368 43.2292 150.285 48.5764 157.021 55.3125C163.757 62.0486 169.104 69.9653 173.063 79.0625C177.021 88.1597 179 97.9167 179 108.333C179 118.75 177.021 128.507 173.063 137.604C169.104 146.701 163.757 154.618 157.021 161.354C150.285 168.09 142.368 173.438 133.271 177.396C124.174 181.354 114.417 183.333 104 183.333ZM50.6667 19.5833L62.3333 31.25L26.9167 66.6667L15.25 55L50.6667 19.5833ZM157.333 19.5833L192.75 55L181.083 66.6667L145.667 31.25L157.333 19.5833ZM104 166.667C120.25 166.667 134.035 161.007 145.354 149.688C156.674 138.368 162.333 124.583 162.333 108.333C162.333 92.0833 156.674 78.2986 145.354 66.9792C134.035 55.6597 120.25 50 104 50C87.75 50 73.9653 55.6597 62.6458 66.9792C51.3264 78.2986 45.6667 92.0833 45.6667 108.333C45.6667 124.583 51.3264 138.368 62.6458 149.688C73.9653 161.007 87.75 166.667 104 166.667Z" fill="#1C1B1F"/>
</g>
</g>
<circle cx="104" cy="108" r="58" fill="white"/>
<g filter="url(#filter2_d_1_2)">
<path d="M87 135.625C82.1458 135.625 78.6146 134.344 76.4062 131.781C74.1979 129.219 73.0938 125.354 73.0938 120.188V114.438H84.375V120.219C84.375 121.677 84.5521 122.917 84.9062 123.938C85.2812 124.938 86.1042 125.438 87.375 125.438C88.6667 125.438 89.4896 124.896 89.8438 123.812C90.1979 122.708 90.375 120.917 90.375 118.438V117.062C90.375 115.167 90.0521 113.51 89.4062 112.094C88.7812 110.677 87.5417 109.969 85.6875 109.969C85.4583 109.969 85.25 109.979 85.0625 110C84.8958 110 84.75 110.01 84.625 110.031V100.156C86.5208 100.156 87.9688 99.7396 88.9688 98.9062C89.9688 98.0521 90.4688 96.6354 90.4688 94.6562C90.4688 91.5521 89.5729 90 87.7812 90C86.6146 90 85.8229 90.4583 85.4062 91.375C85.0104 92.2708 84.8125 93.4167 84.8125 94.8125V96.4688H73.4375C73.4167 96.2188 73.3958 95.9167 73.375 95.5625C73.375 95.2083 73.375 94.8646 73.375 94.5312C73.375 89.4896 74.5521 85.7917 76.9062 83.4375C79.2604 81.0833 82.8646 79.9062 87.7188 79.9062C97.0938 79.9062 101.781 84.7812 101.781 94.5312C101.781 97.2396 101.417 99.4792 100.688 101.25C99.9583 103 98.6042 104.229 96.625 104.938C98.1875 105.688 99.3438 106.646 100.094 107.812C100.844 108.979 101.333 110.427 101.562 112.156C101.792 113.885 101.906 115.979 101.906 118.438C101.906 123.938 100.75 128.177 98.4375 131.156C96.1458 134.135 92.3333 135.625 87 135.625ZM119.312 135.5C114.667 135.5 111.073 134.198 108.531 131.594C106.01 128.99 104.75 125.24 104.75 120.344V95.5312C104.75 90.3646 105.948 86.4062 108.344 83.6562C110.76 80.8854 114.417 79.5 119.312 79.5C124.229 79.5 127.885 80.8854 130.281 83.6562C132.677 86.4062 133.875 90.3646 133.875 95.5312V120.344C133.875 125.24 132.615 128.99 130.094 131.594C127.573 134.198 123.979 135.5 119.312 135.5ZM119.312 125.375C120.167 125.375 120.833 124.99 121.312 124.219C121.792 123.448 122.031 122.583 122.031 121.625V94.4688C122.031 93.1771 121.885 92.0521 121.594 91.0938C121.323 90.1146 120.562 89.625 119.312 89.625C118.062 89.625 117.292 90.1146 117 91.0938C116.729 92.0521 116.594 93.1771 116.594 94.4688V121.625C116.594 122.583 116.833 123.448 117.312 124.219C117.812 124.99 118.479 125.375 119.312 125.375Z" fill="#1C1B1F"/>
</g>
</g>
<defs>
<filter id="filter0_d_1_2" x="0" y="0" width="208" height="208" filterUnits="userSpaceOnUse" color-interpolation-filters="sRGB">
<feFlood flood-opacity="0" result="BackgroundImageFix"/>
<feColorMatrix in="SourceAlpha" type="matrix" values="0 0 0 0 0 0 0 0 0 0 0 0 0 0 0 0 0 0 127 0" result="hardAlpha"/>
<feOffset dy="4"/>
<feGaussianBlur stdDeviation="2"/>
<feComposite in2="hardAlpha" operator="out"/>
<feColorMatrix type="matrix" values="0 0 0 0 0 0 0 0 0 0 0 0 0 0 0 0 0 0 0.25 0"/>
<feBlend mode="normal" in2="BackgroundImageFix" result="effect1_dropShadow_1_2"/>
<feBlend mode="normal" in="SourceGraphic" in2="effect1_dropShadow_1_2" result="shape"/>
</filter>
<filter id="filter1_d_1_2" x="11.25" y="19.5833" width="185.5" height="171.75" filterUnits="userSpaceOnUse" color-interpolation-filters="sRGB">
<feFlood flood-opacity="0" result="BackgroundImageFix"/>
<feColorMatrix in="SourceAlpha" type="matrix" values="0 0 0 0 0 0 0 0 0 0 0 0 0 0 0 0 0 0 127 0" result="hardAlpha"/>
<feOffset dy="4"/>
<feGaussianBlur stdDeviation="2"/>
<feComposite in2="hardAlpha" operator="out"/>
<feColorMatrix type="matrix" values="0 0 0 0 0 0 0 0 0 0 0 0 0 0 0 0 0 0 0.5 0"/>
<feBlend mode="normal" in2="BackgroundImageFix" result="effect1_dropShadow_1_2"/>
<feBlend mode="normal" in="SourceGraphic" in2="effect1_dropShadow_1_2" result="shape"/>
</filter>
<filter id="filter2_d_1_2" x="69.0938" y="79.5" width="68.7812" height="64.125" filterUnits="userSpaceOnUse" color-interpolation-filters="sRGB">
<feFlood flood-opacity="0" result="BackgroundImageFix"/>
<feColorMatrix in="SourceAlpha" type="matrix" values="0 0 0 0 0 0 0 0 0 0 0 0 0 0 0 0 0 0 127 0" result="hardAlpha"/>
<feOffset dy="4"/>
<feGaussianBlur stdDeviation="2"/>
<feComposite in2="hardAlpha" operator="out"/>
<feColorMatrix type="matrix" values="0 0 0 0 0 0 0 0 0 0 0 0 0 0 0 0 0 0 0.5 0"/>
<feBlend mode="normal" in2="BackgroundImageFix" result="effect1_dropShadow_1_2"/>
<feBlend mode="normal" in="SourceGraphic" in2="effect1_dropShadow_1_2" result="shape"/>
</filter>
<clipPath id="clip0_1_2">
<rect width="200" height="200" fill="white" transform="translate(4)"/>
</clipPath>
</defs>
</svg>
